# xmcd
#
# Track frame offsets: 
#        150
#        12331
#        25390
#        41934
#        61014
#        81305
#        95336
#        118186
#        135254
#        158881
#
# Disc length: 2395 seconds
#
# Revision: 0
# Processed by: cddbd v1.5.2PL0 Copyright (c) Steve Scherf et al.
# Submitted via: ExactAudioCopy v0.95b4
#
DISCID=7c09590a
DTITLE=Sunblock - I'll by ready
DYEAR=2006
DGENRE=Dance
TTITLE0=First time feat. Robin Beck
TTITLE1=I'll be ready
TTITLE2=Someone better
TTITLE3=Another try 
TTITLE4=Couldn't help
TTITLE5=Tune in (my frequency)
TTITLE6=Main funktion
TTITLE7=Touch me
TTITLE8=Definition of love
TTITLE9=Moksa
EXTD=
EXTT0=
EXTT1=
EXTT2=
EXTT3=
EXTT4=
EXTT5=
EXTT6=
EXTT7=
EXTT8=
EXTT9=
PLAYORDER=
